<svg xmlns="http://www.w3.org/2000/svg" viewBox="0 0 128 128">
  <defs>
    <linearGradient id="g" x1="0" y1="0" x2="1" y2="1">
      <stop offset="0%" stop-color="#2563EB" />
      <stop offset="100%" stop-color="#22C55E" />
    </linearGradient>
  </defs>
  <rect width="128" height="128" rx="32" fill="#0B1220" />
  <path d="M32 38c12-10 28-14 44-10 13 3 24 12 30 24 6 12 7 27 1 40-4 8-11 15-19 18-8 4-18 4-27 1-10-4-18-12-23-21-6-11-5-24 1-35 3-6 8-10 13-14" fill="url(#g)" opacity="0.95" />
  <path d="M40 42c10-8 22-11 34-8 11 2 21 10 26 19 4 8 4 18 1 26-3 7-9 13-16 16-7 3-16 3-23 0-8-3-14-9-17-16-4-9-3-19 1-28 2-4 6-7 10-9" fill="#fff" />
  <path d="M54 32c2 8-4 18-11 22-2-8-1-16 4-22 5-6 11-9 18-10-6 3-9 6-11 10" fill="#A5F3FC" opacity="0.8" />
</svg>
